<svg width="128" height="128" viewBox="0 0 33.867 33.867" xmlns="http://www.w3.org/2000/svg"><g aria-label="MSC" style="line-height:1.25" font-size="16.933" stroke-width=".265" font-family="Tw Cen MT"><path d="M 15.392834,2.550299 16.963825,12.526907 14.31409,12.900148 14.497913,6.6922829 9.9413778,12.932049 7.6160247,7.3891572 7.2856556,13.086769 5.0091619,12.837941 6.8289815,1.9904363 10.003585,9.7208243 Z" style="-inkscape-font-specification:'Tw Cen MT'" fill="#0079ff" transform="translate(-2.96 9.106)"/><path d="M 24.449326,4.651988 23.299059,5.9750896 C 23.08369,5.4376609 22.875598,5.1396094 22.875598,5.1396094 22.616705,4.8998312 22.639748,4.7443138 22.103497,4.6510033 c -0.510471,-0.088825 -0.411061,-0.083662 -0.84514,0.013395 -0.319704,0.23151 -0.33959,0.2364386 -0.510659,0.6213039 -0.129856,0.2921444 0.01615,0.4947174 0.06399,0.9293847 0.110049,0.3669481 0.154158,0.3543557 0.536668,0.8020166 0.584682,0.4265971 0.722299,0.6344851 1.097125,0.8880436 0.380337,0.2480464 0.676221,0.5236535 0.918756,0.8268213 0.242534,0.3031678 0.483886,0.6384237 0.599641,0.9746644 0.121267,0.3362412 0.244107,0.5518082 0.244107,0.9266332 0,0.876431 -0.19529,1.436705 -0.539216,1.898548 -0.633896,0.61736 -0.889633,0.848281 -1.793624,0.848281 -0.881943,0 -1.335324,0.102361 -2.013317,-0.377196 -0.952413,-0.329551 -1.579416,-1.116605 -1.943218,-2.08123 l 1.314255,-0.778384 c 0.523654,1.185111 1.36717,1.594492 2.157223,1.435528 0.553511,-0.111371 0.562542,-0.172648 0.824273,-0.502393 0,0 0.329759,-0.507678 0.108776,-0.941794 -0.14364,-0.2821776 0.02333,0 -0.257298,-0.4166693 C 21.775074,9.3558302 21.760888,9.3443538 21.535585,9.1152601 21.276595,8.8519136 21.372291,8.9130874 21.053942,8.6030216 20.495247,8.1427629 20.57703,8.1711051 20.350636,7.9415645 20.106427,7.5820979 19.950214,7.3112162 19.718704,7.0356091 c 0,0 -0.231317,-0.5905859 -0.263801,-0.9750552 0,0 -0.06242,-0.4941581 -0.03268,-0.8069401 0.04666,-0.4907838 0.256513,-1.3040174 0.645123,-1.5221483 0.233093,-0.2080911 0.673481,-0.5531887 1.538888,-0.5531887 0.573263,0 0.900409,0.054841 1.464662,0.3565177 0.667558,0.3569086 0.987069,0.6100764 1.378432,1.1171935 z" style="-inkscape-font-specification:'Tw Cen MT'" fill="#ffba00" transform="translate(-2.96 9.106)"/><path d="M 34.750738,4.7126006 33.78653,6.2481282 c -0.85557,-0.9610716 -1.7135,-1.7370905 -2.6671,-1.7370905 -1.223696,0 -2.223363,0.2102533 -3.061209,1.0040017 -0.837845,0.7882363 -1.412285,1.6650629 -1.412285,2.8171005 0,1.1740862 0.520501,1.7820051 1.374883,2.5702411 0.859894,0.782725 1.721993,0.69607 3.006879,0.583121 1.061478,-0.09331 1.680422,-0.38821 2.883246,-0.573664 l 0.311034,1.427649 c -0.9536,0.507118 -1.676092,0.822883 -2.789545,0.822883 -1.631594,0 -3.274993,-0.02245 -4.432543,-1.124883 -1.15755,-1.107941 -1.829635,-2.2863618 -1.829635,-3.8462974 0,-1.5323755 0.723268,-2.8442653 1.858769,-3.9356694 1.141014,-1.0914041 2.762365,-1.2638643 4.366398,-1.2638643 1.030771,0 2.501716,0.9157865 3.355316,1.7209447 z" style="-inkscape-font-specification:'Tw Cen MT'" fill="#ff000d" transform="translate(-2.96 9.106)"/></g></svg>